<?xml version="1.0" encoding="UTF-8"?>
<svg width="512px" height="512px" viewBox="0 0 512 512" version="1.1" xmlns="http://www.w3.org/2000/svg" xmlns:xlink="http://www.w3.org/1999/xlink">
    <title>inspatial-logomark</title>
    <g id="inspatial-logomark" stroke="none" fill="none" fill-rule="evenodd" stroke-width="1">
        <g id="Group" transform="translate(25, 0)" fill="#FFFFFF">
            <path d="M427.495762,102.780047 L395.331347,84.0662053 L328.663288,122.663503 L273.10511,154.827918 L259.94694,162.430416 L0,312.142023 L0,349.569706 C0,374.131622 13.158158,396.939116 34.5036332,409.220075 L66.6680479,427.933916 L328.663288,276.76029 L328.663288,312.434427 L97.6628475,445.770546 L196.495322,502.789281 C217.840797,515.07024 243.864733,515.07024 265.210208,502.789281 L328.370884,466.23881 L427.203358,409.220075 C448.548834,396.939116 461.704079,374.131622 461.704079,349.569706 L461.704079,162.430416 C461.999407,137.576095 448.841237,115.061005 427.495762,102.780047 Z" id="Path" fill-rule="nonzero"></path>
            <path d="M95.6160211,67.3991904 L34.2112294,102.780047 C13.158158,115.061005 0,137.576095 0,162.138012 L0,276.467886 L229.244544,144.301382 L95.6160211,67.3991904 Z" id="Path" fill-rule="nonzero"></path>
            <path d="M328.663288,86.6978392 L364.336548,65.9371715 L328.663288,45.1765038 L265.2105,9.21072314 C243.865025,-3.07024105 217.840797,-3.07024105 196.495614,9.21072314 L126.611113,49.2701566 L259.947232,126.172348 L328.663288,86.6978392 Z" id="Path" fill-rule="nonzero"></path>
        </g>
    </g>
</svg>