<svg xmlns="http://www.w3.org/2000/svg" width="24" height="24" viewBox="0 0 24 24"><path fill="#FFF" d="M14.72,6 L12.4776,14.8196875 L10.3608,6 L7.472,6 L5.3544,14.8196875 L3.1136,6 L0,6 L4.0096,18.84725 L6.7496,18.84725 L8.916,10.537 L11.0832,18.84725 L13.8232,18.84725 L17.832,6 L14.7184,6 L14.72,6 Z M19.816,16.8590625 C19.816,18.0826875 20.712,19 21.908,19 C23.1032,19 24,18.081875 24,16.8590625 C24,15.6354375 23.104,14.7173125 21.908,14.7173125 C20.712,14.7173125 19.816,15.6354375 19.816,16.8590625 L19.816,16.8590625 Z"/></svg>