<svg xmlns="http://www.w3.org/2000/svg" width="24" height="24" viewBox="0 0 24 24"><g fill="none" fill-rule="evenodd"><path fill="currentColor" fill-rule="nonzero" d="M17,5.25 C17.9664983,5.25 18.75,6.03350169 18.75,7 L18.75,13 C18.75,13.9664983 17.9664983,14.75 17,14.75 L14.75,14.75 L14.75,17 C14.75,17.9664983 13.9664983,18.75 13,18.75 L7,18.75 C6.03350169,18.75 5.25,17.9664983 5.25,17 L5.25,11 C5.25,10.0335017 6.03350169,9.25 7,9.25 L9.25,9.25 L9.25,7 C9.25,6.03350169 10.0335017,5.25 11,5.25 L17,5.25 Z M9.25,10.75 L7,10.75 C6.86192881,10.75 6.75,10.8619288 6.75,11 L6.75,17 C6.75,17.1380712 6.86192881,17.25 7,17.25 L13,17.25 C13.1380712,17.25 13.25,17.1380712 13.25,17 L13.25,14.75 L11,14.75 C10.0335017,14.75 9.25,13.9664983 9.25,13 L9.25,10.75 Z M17,6.75 L11,6.75 C10.8619288,6.75 10.75,6.86192881 10.75,7 L10.75,13 C10.75,13.1380712 10.8619288,13.25 11,13.25 L17,13.25 C17.1380712,13.25 17.25,13.1380712 17.25,13 L17.25,7 C17.25,6.86192881 17.1380712,6.75 17,6.75 Z"/><polyline stroke="currentColor" stroke-width="1.75" points="5 12 10 17 19 8"/></g></svg>