<svg xmlns="http://www.w3.org/2000/svg" width="24" height="24" viewBox="0 0 24 24"><path fill="#FFF" d="M17.5446757,7.01094204 C16.5248898,6.54302092 15.4313236,6.19827727 14.2879321,6.00082826 C14.2671096,5.99701756 14.2463096,6.00654094 14.2355828,6.0255877 C14.0949406,6.27573079 13.9391547,6.60206318 13.8300617,6.85855894 C12.6002702,6.67444627 11.3767885,6.67444627 10.1722139,6.85855894 C10.0630984,6.59636177 9.90165617,6.27573079 9.76038294,6.0255877 C9.74965618,6.00717643 9.72885618,5.99765305 9.70803364,6.00082826 C8.56527311,6.19764628 7.47170693,6.54238994 6.45129006,7.01094204 C6.44245625,7.01475049 6.43488442,7.02110542 6.42985907,7.02935331 C4.35559433,10.1282603 3.78736652,13.1509982 4.06612009,16.1362601 C4.06738138,16.1508629 4.07557992,16.1648348 4.08693203,16.1737137 C5.45547262,17.178739 6.78113794,17.7888798 8.08218579,18.1932967 C8.10300833,18.1996516 8.1250703,18.1920347 8.138321,18.1748854 C8.44608438,17.7546038 8.72042803,17.3114488 8.95565056,16.8454207 C8.96953225,16.8181305 8.95628155,16.7857474 8.92790972,16.7749531 C8.4927548,16.6098827 8.07839988,16.4086207 7.67981961,16.1800686 C7.64829285,16.1616573 7.6457689,16.1165644 7.67477172,16.0949756 C7.75864777,16.0321249 7.84254636,15.9667277 7.9226365,15.9006996 C7.93712664,15.8886432 7.95731819,15.8860968 7.97435481,15.8937137 C10.5928562,17.0892291 13.4276955,17.0892291 16.0153011,15.8937137 C16.0323377,15.8854658 16.0525293,15.8880122 16.0676504,15.9000686 C16.1477631,15.9660968 16.2316391,16.0321249 16.3161462,16.0949756 C16.345149,16.1165644 16.343256,16.1616573 16.3117293,16.1800686 C15.913149,16.4130601 15.4987941,16.6098827 15.0630082,16.7743221 C15.0346363,16.7851165 15.0220166,16.8181305 15.0358983,16.8454207 C15.2761687,17.3107953 15.5505124,17.7539502 15.8525969,18.1742544 C15.8652166,18.1920347 15.8879096,18.1996516 15.9087321,18.1932967 C17.2160898,17.7888798 18.5417461,17.178739 19.9102869,16.1737137 C19.9222757,16.1648348 19.9298475,16.1514939 19.9311095,16.1368911 C20.2647207,12.6856011 19.3723264,9.68765183 17.5654757,7.02998429 C17.5610588,7.02110542 17.5535095,7.01475049 17.5446757,7.01094204 Z M9.34668154,14.3185475 C8.55833226,14.3185475 7.90875481,13.5947841 7.90875481,12.7059278 C7.90875481,11.8170715 8.54573508,11.0933081 9.34668154,11.0933081 C10.1539153,11.0933081 10.7972054,11.8234264 10.7845857,12.7059278 C10.7845857,13.5947841 10.1476055,14.3185475 9.34668154,14.3185475 Z M14.6631659,14.3185475 C13.8748392,14.3185475 13.2252617,13.5947841 13.2252617,12.7059278 C13.2252617,11.8170715 13.8622195,11.0933081 14.6631659,11.0933081 C15.4704222,11.0933081 16.1136898,11.8234264 16.1010926,12.7059278 C16.1010926,13.5947841 15.4704222,14.3185475 14.6631659,14.3185475 Z"/></svg>