<svg xmlns="http://www.w3.org/2000/svg" width="24" height="24" viewBox="0 0 24 24"><g fill="none" fill-rule="evenodd" stroke-linecap="square" stroke-linejoin="bevel"><path stroke="#FFF" stroke-width="1.75" d="M10,5 C8.34314575,5 7,6.34314575 7,8 L7,11 L7,11 L4,12 L7,13 L7,16 C7,17.6568542 8.34314575,19 10,19 L10,19 L10,19"/><path stroke="#FFF" stroke-width="1.75" d="M20,5 C18.3431458,5 17,6.34314575 17,8 L17,11 L17,11 L14,12 L17,13 L17,16 C17,17.6568542 18.3431458,19 20,19 L20,19 L20,19" transform="matrix(-1 0 0 1 34 0)"/></g></svg>