<svg xmlns="http://www.w3.org/2000/svg" width="24" height="24" viewBox="0 0 24 24"><g fill="none" fill-rule="evenodd"><path fill="#FFF" fill-rule="nonzero" d="M16.1666667,6.125 L7.83333333,6.125 C5.9693723,6.125 4.45833333,7.63603897 4.45833333,9.5 L4.45833333,14.5 C4.45833333,16.363961 5.9693723,17.875 7.83333333,17.875 L16.1666667,17.875 C18.0306277,17.875 19.5416667,16.363961 19.5416667,14.5 L19.5416667,9.5 C19.5416667,7.63603897 18.0306277,6.125 16.1666667,6.125 Z M7.83333333,7.875 L16.1666667,7.875 C17.0641294,7.875 17.7916667,8.60253728 17.7916667,9.5 L17.7916667,14.5 C17.7916667,15.3974627 17.0641294,16.125 16.1666667,16.125 L7.83333333,16.125 C6.93587061,16.125 6.20833333,15.3974627 6.20833333,14.5 L6.20833333,9.5 C6.20833333,8.60253728 6.93587061,7.875 7.83333333,7.875 Z"/><path fill="#FFF" d="M10.35,10.5001095 L10.35,13.8820755 C10.35,14.1582179 10.5738576,14.3820755 10.85,14.3820755 C10.9276225,14.3820755 11.0041791,14.364003 11.0736068,14.3292891 L14.4555728,12.6383061 C14.7025621,12.5148115 14.8026742,12.214475 14.6791796,11.9674857 C14.6307978,11.870722 14.5523365,11.7922608 14.4555728,11.7438789 L11.0736068,10.0528959 C10.8266175,9.92940131 10.526281,10.0295135 10.4027864,10.2765027 C10.3796438,10.3227879 10.3638974,10.3722414 10.3559712,10.4230669 L10.35,10.5001095 Z"/></g></svg>