<svg viewBox="0 0 150 150" xmlns="http://www.w3.org/2000/svg"><g fill="#fff"><path d="m21.847.934c12.918-.677 25.943-.869 38.923-.922 3.874-.016 5.81-.024 7.02 1.18 1.21 1.205 1.21 3.146 1.21 7.028v133.56c0 3.882 0 5.823-1.21 7.027-1.21 1.205-3.146 1.197-7.02 1.181-12.98-.053-26.005-.245-38.923-.923-14.617-.765-20.137-6.302-20.903-20.898-.927-17.652-.944-35.502-.944-53.167 0-17.666.017-35.516.944-53.168.756-14.392 6.504-20.142 20.903-20.898z"/><path d="m128.223 149.065c-13.872.728-27.866.895-41.796.933-3.873.01-5.81.016-7.018-1.189-1.208-1.204-1.208-3.144-1.208-7.023v-37.526c0-11.625 0-17.438 3.613-21.049 3.612-3.611 9.426-3.611 21.056-3.611h22.53c11.705 0 17.558 0 21.183 3.682 3.624 3.682 3.531 9.449 3.344 20.982-.127 7.818-.361 15.64-.795 23.904-.774 14.731-6.203 20.127-20.91 20.898z"/><path d="m149.896 45.717c.188 11.546.282 17.32-3.342 21.002-3.625 3.683-9.475 3.683-21.175 3.683h-22.508c-11.63 0-17.445 0-21.057-3.612-3.614-3.61-3.614-9.423-3.614-21.048v-37.528c0-3.88 0-5.819 1.208-7.024 1.209-1.204 3.146-1.199 7.019-1.188 13.93.038 27.924.204 41.796.932 14.602.767 20.142 6.288 20.91 20.898.4 7.608.63 15.74.763 23.885z"/></g></svg>