<svg xmlns="http://www.w3.org/2000/svg" width="512" height="512" viewBox="0 0 512 512"><path fill="#FFF" d="M210.565845,116.220943 C211.008908,116.220943 211.230439,116.220943 211.383011,116.312659 C211.516619,116.392996 211.615748,116.519277 211.663158,116.667884 C211.716601,116.837351 211.664882,117.052849 211.561443,117.483757 L137.252807,427.26688 C137.149368,427.697874 137.097649,427.913372 137.151092,428.082322 C137.198502,428.231446 137.29763,428.357296 137.431239,428.437461 C137.583811,428.529694 137.805342,428.529694 138.248404,428.529694 L254.338558,428.529872 C254.679864,428.531122 254.866161,428.541115 254.999662,428.621065 C255.13327,428.70123 255.232399,428.827942 255.279808,428.976204 C255.333251,429.146016 255.281532,429.361514 255.178093,429.792508 L247.984794,459.780248 C247.917559,460.060395 247.883941,460.200899 247.807224,460.3052 C247.739127,460.397433 247.646894,460.46984 247.541732,460.514663 C247.421915,460.564658 247.277963,460.564658 246.989197,460.564658 L56.1672986,460.564658 C25.1469816,460.564658 -1.64845915e-12,434.356741 -1.64845915e-12,402.026114 L-1.64845915e-12,174.759229 C-1.64845915e-12,142.429464 25.1469816,116.220943 56.1672986,116.220943 Z M455.350936,51 C486.636832,51 512,77.2086074 512,109.538545 L512,336.80543 C512,369.136056 486.636832,395.343974 455.350936,395.343974 L180.065222,395.343974 C179.621297,395.343974 179.399766,395.343974 179.247194,395.251741 C179.113586,395.171576 179.013595,395.044864 178.967047,394.896602 C178.913604,394.72679 178.965323,394.510431 179.069624,394.079436 L261.883507,51.7831533 C261.951604,51.5033017 261.985222,51.3633758 262.061939,51.2591148 C262.130898,51.1671311 262.222269,51.095099 262.327431,51.0505245 C262.427278,51.0084208 262.543886,51.0014035 262.746593,51.0002339 L455.350936,51 Z"/></svg>