<svg xmlns="http://www.w3.org/2000/svg" width="512" height="512" viewBox="0 0 512 512"><path fill="#F6F4F2" fill-rule="evenodd" d="M187.232616,414.842932 L187.232616,459.835464 C187.232616,470.78185 174.914175,477.531971 165.081984,471.770003 L143.613154,458.387076 L138.451366,455.560238 C138.075721,455.35268 108.463409,438.732313 43.4890728,402.263162 L38.3396263,399.39797 C32.9785778,396.392903 28.578458,392.09286 25.5366831,386.901674 C22.5303835,381.753353 20.9659115,375.910167 21.0247064,370.114358 L21,258.065062 L21,145.837764 C21,139.537501 22.8328824,133.385912 26.2395787,128.106965 C29.6154405,122.801172 34.5038534,118.441343 39.5141196,116.095044 L133.163912,63.5564546 L138.291181,60.643209 C139.996586,59.6945373 139.998391,59.6936349 143.437176,57.792005 L143.448231,57.7859136 L233.137532,7.52109033 L238.390918,4.50020829 C244.16186,1.27312268 250.693792,-0.262777938 257.315517,0.036736107 C263.745472,0.339656797 270.082927,2.38511031 274.439503,5.40285644 L367.76861,57.7583897 L372.941904,60.5913197 L467.841274,113.855006 L473.023592,116.733283 C478.381888,119.743764 482.772307,124.037942 485.811307,129.228225 C488.811952,134.363686 490.375447,140.205068 490.325812,146.017797 L490.343861,248.048172 C490.343861,258.879499 478.26457,265.645412 468.603844,260.224108 L428.327507,237.625192 C423.8491,235.111945 421.08986,230.473493 421.08986,225.451511 L421.08986,165.194502 L340.128828,119.744441 C339.361745,119.375801 337.791483,118.505641 333.281489,115.968931 L255.66629,72.3622939 L174.972158,117.600511 L174.970804,117.601413 L174.970353,117.601639 C174.18635,118.102483 174.185898,118.102709 173.681203,118.414045 C173.377078,118.595883 167.842353,121.713527 167.842353,121.713527 L90.2594161,165.199916 L90.2594161,350.931111 L171.266924,396.401927 C171.846071,396.683934 172.903517,397.270509 178.249179,400.266552 L180.503273,402.209016 L181.753391,403.831121 C185.1915,406.479731 187.232616,410.52484 187.232616,414.842932 Z M442.895304,287.021546 C433.234578,281.620547 421.173336,288.38646 421.173336,299.206506 L421.173336,307.493002 L215.883819,192.341854 L208.895699,188.390145 C201.917505,184.4804 193.307457,184.889197 186.811397,189.375816 L181.433022,192.312074 L150.717013,209.473669 L138.329084,216.377653 C128.413868,221.943344 125.312599,234.126048 131.10001,243.818066 L138.142277,255.605961 L145.247716,267.522451 C150.993163,277.140019 163.570155,280.140574 173.524177,274.489153 C185.650621,267.693911 186.222098,267.375807 186.762214,267.010326 C186.81072,266.978741 186.859002,266.9449 186.91563,266.906547 L198.586337,260.397825 L221.936776,273.498744 L221.913087,492.178289 C221.913087,503.124674 231.051745,512 242.326953,512 C247.499119,512 252.442288,510.104913 256.216785,506.711804 L256.492032,506.495222 C279.001387,488.850606 279.021692,488.837069 283.718944,485.150673 C289.029861,480.997273 291.822943,474.574281 291.243119,468.011413 L291.285986,312.424741 L438.132625,395.057318 C448.386711,400.789957 459.811727,396.947893 467.450964,387.4702 L486.303142,368.830662 C488.949576,366.197845 490.427338,362.673884 490.427338,359.005537 L490.427338,321.724205 C490.427338,316.695456 487.659073,312.050235 483.169385,309.539245 L442.895304,287.021546 Z"/></svg>